<?xml version="1.0" encoding="UTF-8"?>
<svg id="Layer_2" data-name="Layer 2" xmlns="http://www.w3.org/2000/svg" viewBox="0 0 577.03 118.7">
  <defs>
    <style>
      .cls-1 {
        font-family: Baskerville-SemiBold, Baskerville;
        font-size: 48px;
        font-weight: 600;
      }

      .cls-1, .cls-2 {
        fill: #ba6e4a;
      }

      .cls-3 {
        letter-spacing: -.02em;
      }
    </style>
  </defs>
  <g id="Layer_3" data-name="Layer 3">
    <path class="cls-2" d="M55.2,4.25c8.65,5.81,30.12,22.51,33.66,31.43,3.03,7.65,3.06,37.1,2.13,46.06-.62,5.97-4,10.94-10.26,11.88-28.42.29-39.98.41-69.2.02-5.62-.07-10.04-4.59-10.77-10.26-1.08-8.44-.95-33.46,0-42.06.33-2.98,1.57-6.01,3.03-8.6C6.33,28.21,35.57,3.54,40.43,1.29c4.01-1.86,7.62-1.72,11.45.53.98.58,2.88,2.15,3.31,2.44ZM17.36,73.7v-29.62c0-.21,1.36-3.37,1.64-3.9,1.96-3.62,28-24.07,32.09-24.92,2.16-.45,4.18-.09,6.32-.32.8-.09,4.16.26,4.23-1.3-1.39-1.93-12.02-13.72-20.82-8.92-3.53,1.92-28.46,22.6-31.56,26-10.34,11.37-4.82,35.42,8.1,42.98ZM87.65,57.09v-13.01c0-11.44-16.66-25.24-27.4-26.29-1.23-.12-11.92.13-11.34,2.47,13,12.18,30.6,20.26,38.74,36.82ZM44.48,23.33l-10.56,7.52c-.26,1.42,8.3,9.52,9.73,11.3l.82-18.81ZM47.25,23.33v17.99c0,.37-.36,1.21.56.56,1.13-.79,10.23-10.11,9.95-10.79l-10.52-7.76ZM41.71,44.92l-9.97-11.63c-3.95,3.29-10.04,6.14-11.06,11.63h21.03ZM70.49,44.92c1.54-3.06-9.48-11.83-10.48-11.66-1.79,2.47-7.58,7.22-10.59,11.55l21.07.1ZM74.37,90.31c16.23,3.17,13.41-14.81,12.96-25.52-.28-6.66-7.34-15.53-11.19-18.53-.15-.12-1.81-1.08-1.77-.51v44.56ZM30.65,47.68h-9.96v12.18h9.96v-12.18ZM43.93,48.24c-1.42-.06-9.96-1.49-9.96.28v10.79h9.96v-11.07ZM71.05,59.86v-11.35l-.83-.83h-22.97v42.9c0,1.35,6.64.62,6.64.28v-31h17.16ZM3.53,62.08v20.21c0,1.68,1.76,5.58,3.29,6.46,7.58,4.33,30.09,2.41,36.95,1.93l.17-13.09h-25.18c-4.8,0-13.25-11.38-15.22-15.5ZM30.65,62.63h-9.96v12.18h9.96v-12.18ZM43.93,62.63h-9.96v12.18h9.96v-12.18ZM71.05,62.63h-14.39v27.4l.83.83h12.73l.83-.83v-27.4Z"/>
  </g>
  <g id="Layer_2-2" data-name="Layer 2">
    <text class="cls-1" transform="translate(102.88 91.89) scale(1 1.25)"><tspan x="0" y="0">M</tspan><tspan class="cls-3" x="46.52" y="0">e</tspan><tspan x="70.08" y="0">xico Home Finder</tspan></text>
  </g>
</svg>