<?xml version="1.0" encoding="UTF-8"?>
<svg id="Layer_2" data-name="Layer 2" xmlns="http://www.w3.org/2000/svg" viewBox="0 0 91.52 93.89">
  <defs>
    <style>
      .cls-1 {
        fill: #fff;
        font-family: Baskerville, Baskerville;
        font-size: 30px;
      }

      .cls-2 {
        fill: #ba6e4a;
      }
    </style>
  </defs>
  <g id="Layer_3" data-name="Layer 3">
    <path class="cls-2" d="M36.33,89.64c-8.65-5.81-30.12-22.51-33.66-31.43C-.37,50.56-.39,21.11.53,12.15,1.15,6.18,4.53,1.21,10.79.27,39.21-.02,50.77-.14,79.99.24c5.62.07,10.04,4.59,10.77,10.26,1.08,8.44.95,33.46,0,42.06-.33,2.98-1.57,6.01-3.03,8.6-2.54,4.52-31.78,29.19-36.64,31.44-4.01,1.86-7.62,1.72-11.45-.53-.98-.58-2.88-2.15-3.31-2.44ZM74.16,20.19v29.62c0,.21-1.36,3.37-1.64,3.9-1.96,3.62-28,24.07-32.09,24.92-2.16.45-4.18.09-6.32.32-.8.09-4.16-.26-4.23,1.3,1.39,1.93,12.02,13.72,20.82,8.92,3.53-1.92,28.46-22.6,31.56-26,10.34-11.37,4.82-35.42-8.1-42.98ZM3.87,36.8v13.01c0,11.44,16.66,25.24,27.4,26.29,1.23.12,11.92-.13,11.34-2.47C29.61,61.44,12.02,53.36,3.87,36.8ZM47.04,70.56l10.56-7.52c.26-1.42-8.3-9.52-9.73-11.3l-.82,18.81ZM44.27,70.57v-17.99c0-.37.36-1.21-.56-.56-1.13.79-10.23,10.11-9.95,10.79l10.52,7.76ZM49.81,48.98l9.97,11.63c3.95-3.29,10.04-6.14,11.06-11.63h-21.03ZM21.03,48.98c-1.54,3.06,9.48,11.83,10.48,11.66,1.79-2.47,7.58-7.22,10.59-11.55l-21.07-.1ZM17.15,3.59C.92.42,3.74,18.39,4.19,29.1c.28,6.66,7.34,15.53,11.19,18.53.15.12,1.81,1.08,1.77.51V3.59ZM60.87,46.21h9.96s0-12.18,0-12.18h-9.96s0,12.18,0,12.18ZM47.59,45.66c1.42.06,9.96,1.49,9.96-.28v-10.79s-9.96,0-9.96,0v11.07ZM20.47,34.03v11.35s.83.83.83.83h22.97s0-42.9,0-42.9c0-1.35-6.64-.62-6.64-.28v31h-17.16ZM87.99,31.82V11.61c0-1.68-1.76-5.58-3.29-6.46-7.58-4.33-30.09-2.41-36.95-1.93l-.17,13.09h25.18c4.8,0,13.25,11.38,15.22,15.5ZM60.87,31.26h9.96s0-12.18,0-12.18h-9.96s0,12.18,0,12.18ZM47.59,31.26h9.96s0-12.18,0-12.18h-9.96s0,12.18,0,12.18ZM20.47,31.26h14.39s0-27.4,0-27.4l-.83-.83h-12.73s-.83.83-.83.83v27.4Z"/>
    <polygon class="cls-2" points="10 2.21 4.4 5.01 1.94 10.79 1.59 23.23 2.64 52.3 5.62 60.88 15.25 71.04 29.44 82.77 43.62 92.06 54.31 88.55 82.5 65.44 88.46 54.58 89.16 14.65 87.41 5.36 80.75 1.86 10 2.21"/>
  </g>
  <g id="Layer_2-2" data-name="Layer 2">
    <text class="cls-1" transform="translate(10.08 46.12) scale(1 1.25)"><tspan x="0" y="0">MHF</tspan></text>
  </g>
</svg>